<svg width="14" height="14" viewBox="0 0 14 14" fill="none" xmlns="http://www.w3.org/2000/svg">
<g clip-path="url(#clip0_77_3)">
<path d="M5 5.5C6.38071 5.5 7.5 4.38071 7.5 3C7.5 1.61929 6.38071 0.5 5 0.5C3.61929 0.5 2.5 1.61929 2.5 3C2.5 4.38071 3.61929 5.5 5 5.5Z" stroke="#110000" stroke-linecap="round" stroke-linejoin="round"/>
<path d="M6.5 12.5H0.5V11.9579C0.507961 11.1957 0.708977 10.4479 1.08427 9.78448C1.45957 9.12102 1.9969 8.56351 2.64607 8.16401C3.29525 7.76452 4.03509 7.53608 4.79648 7.50004C5.55788 7.46399 6.31599 7.62152 7 7.95789" stroke="#110000" stroke-linecap="round" stroke-linejoin="round"/>
<path d="M10.5 7.5V13.5" stroke="#110000" stroke-linecap="round" stroke-linejoin="round"/>
<path d="M7.5 10.5H13.5" stroke="#110000" stroke-linecap="round" stroke-linejoin="round"/>
</g>
<defs>
<clipPath id="clip0_77_3">
<rect width="14" height="14" fill="white"/>
</clipPath>
</defs>
</svg>
