<svg width="40" height="40" viewBox="0 0 40 40" fill="none" xmlns="http://www.w3.org/2000/svg">
<path d="M26.25 21.6667C26.25 20.9763 25.6903 20.4167 25 20.4167H15C14.3096 20.4167 13.75 20.9763 13.75 21.6667C13.75 22.357 14.3096 22.9167 15 22.9167H25C25.6903 22.9167 26.25 22.357 26.25 21.6667Z" fill="white"/>
<path d="M26.25 28.3333C26.25 27.643 25.6903 27.0833 25 27.0833H15C14.3096 27.0833 13.75 27.643 13.75 28.3333C13.75 29.0237 14.3096 29.5833 15 29.5833H25C25.6903 29.5833 26.25 29.0237 26.25 28.3333Z" fill="white"/>
<path fill-rule="evenodd" clip-rule="evenodd" d="M11.6666 3.75C9.13534 3.75 7.08331 5.80203 7.08331 8.33333V31.6667C7.08331 34.198 9.13534 36.25 11.6666 36.25H28.3333C30.8646 36.25 32.9166 34.198 32.9166 31.6667V13.2794C32.9166 12.6448 32.7097 12.0275 32.3271 11.5212L27.3308 4.9084C26.7796 4.17883 25.9181 3.75 25.0037 3.75H11.6666ZM9.58331 8.33333C9.58331 7.18274 10.5161 6.25 11.6666 6.25H23.75V13.5784C23.75 14.2688 24.3096 14.8284 25 14.8284H30.4166V31.6667C30.4166 32.8173 29.4839 33.75 28.3333 33.75H11.6666C10.5161 33.75 9.58331 32.8173 9.58331 31.6667V8.33333Z" fill="white"/>
</svg>
