<svg width="24" height="24" viewBox="0 0 24 24" fill="none" xmlns="http://www.w3.org/2000/svg">
<g clip-path="url(#clip0_121_9)">
<path d="M16.2857 18V21.4285C16.2857 21.8832 16.1051 22.3193 15.7836 22.6407C15.4621 22.9621 15.0261 23.1428 14.5714 23.1428H2.5714C2.11674 23.1428 1.68071 22.9621 1.35922 22.6407C1.03773 22.3193 0.857117 21.8832 0.857117 21.4285V2.5714C0.857117 2.11674 1.03773 1.68071 1.35922 1.35922C1.68071 1.03773 2.11674 0.857117 2.5714 0.857117H14.5714C15.0261 0.857117 15.4621 1.03773 15.7836 1.35922C16.1051 1.68071 16.2857 2.11674 16.2857 2.5714V5.99997" stroke="white" stroke-width="1.71429" stroke-linecap="round" stroke-linejoin="round"/>
<path d="M11.1428 12H23.1428" stroke="white" stroke-width="1.71429" stroke-linecap="round" stroke-linejoin="round"/>
<path d="M19.7142 8.57141L23.1428 12L19.7142 15.4286" stroke="white" stroke-width="1.71429" stroke-linecap="round" stroke-linejoin="round"/>
</g>
<defs>
<clipPath id="clip0_121_9">
<rect width="24" height="24" fill="white"/>
</clipPath>
</defs>
</svg>
