<svg width="24" height="24" viewBox="0 0 24 24" fill="none" xmlns="http://www.w3.org/2000/svg">
<path fill-rule="evenodd" clip-rule="evenodd" d="M7.30621 7.75819L7.64927 10.8457L6.95505 10.9012C5.98695 10.9785 5.19645 11.7062 5.03952 12.6646C4.67783 14.8735 4.67783 17.1265 5.03952 19.3354C5.19645 20.2938 5.98695 21.0216 6.95505 21.0989L8.45118 21.2183C10.8133 21.4069 13.1867 21.4069 15.5489 21.2183L17.045 21.0989C18.0131 21.0216 18.8036 20.2938 18.9605 19.3354C19.3222 17.1265 19.3222 14.8735 18.9605 12.6646C18.8036 11.7062 18.0131 10.9785 17.045 10.9012L16.3507 10.8457L16.6937 7.75819C16.7342 7.39421 16.7342 7.02687 16.6937 6.66289L16.671 6.458C16.4295 4.28461 14.7209 2.56495 12.5491 2.30944C12.1843 2.26652 11.8157 2.26652 11.4509 2.30944C9.27907 2.56495 7.57046 4.28461 7.32898 6.45799L7.30621 6.66289C7.26577 7.02687 7.26577 7.39421 7.30621 7.75819ZM12.3738 3.79917C12.1255 3.76995 11.8745 3.76995 11.6261 3.79917C10.1475 3.97312 8.98422 5.14393 8.8198 6.62364L8.79704 6.82854C8.76883 7.08242 8.76883 7.33865 8.79704 7.59254L9.14583 10.7317C11.0466 10.6098 12.9533 10.6098 14.8541 10.7317L15.2029 7.59254C15.2311 7.33865 15.2311 7.08242 15.2029 6.82854L15.1802 6.62364C15.0157 5.14393 13.8525 3.97312 12.3738 3.79917ZM12 14.5C11.1716 14.5 10.5 15.1716 10.5 16C10.5 16.8284 11.1716 17.5 12 17.5C12.8284 17.5 13.5 16.8284 13.5 16C13.5 15.1716 12.8284 14.5 12 14.5Z" fill="#110000"/>
</svg>
