<svg width="20" height="20" viewBox="0 0 20 20" fill="none" xmlns="http://www.w3.org/2000/svg">
<g clip-path="url(#clip0_164_8502)">
<path d="M7.49696 18.5453C6.61904 19.1116 5.57288 19.3584 4.53438 19.2443C3.4959 19.13 2.5284 18.6617 1.7946 17.918L1.15308 17.2907C0.87183 17.003 0.714355 16.6167 0.714355 16.2144C0.714355 15.8121 0.87183 15.4257 1.15308 15.1381L3.87596 12.4437C4.16123 12.1634 4.54518 12.0063 4.94516 12.0063C5.34511 12.0063 5.72908 12.1634 6.01434 12.4437C6.30201 12.725 6.68836 12.8825 7.09067 12.8825C7.49298 12.8825 7.87931 12.725 8.16698 12.4437L12.4438 8.16696C12.5864 8.02636 12.6997 7.8588 12.7771 7.67403C12.8544 7.48926 12.8942 7.29094 12.8942 7.09064C12.8942 6.89033 12.8544 6.69203 12.7771 6.50724C12.6997 6.32247 12.5864 6.15491 12.4438 6.01431C12.1634 5.72906 12.0063 5.34508 12.0063 4.94513C12.0063 4.54516 12.1634 4.1612 12.4438 3.87593L15.1524 1.16731C15.4401 0.886057 15.8264 0.728584 16.2286 0.728584C16.6311 0.728584 17.0174 0.886057 17.3051 1.16731L17.9324 1.80883C18.6759 2.54263 19.1442 3.51013 19.2585 4.54861C19.3728 5.58711 19.1259 6.63327 18.5595 7.51118C15.6085 11.8603 11.8537 15.6054 7.49696 18.5453Z" stroke="#ffffff" stroke-width="1.42857" stroke-linecap="round" stroke-linejoin="round"/>
</g>
<defs>
<clipPath id="clip0_164_8502">
<rect width="20" height="20" fill="white"/>
</clipPath>
</defs>
</svg>
