<svg width="24" height="24" viewBox="0 0 24 24" fill="none" xmlns="http://www.w3.org/2000/svg">
<path d="M14.5714 0.856934H9.42858C8.48181 0.856934 7.71429 1.62444 7.71429 2.57122V3.42836C7.71429 4.37513 8.48181 5.14265 9.42858 5.14265H14.5714C15.5182 5.14265 16.2857 4.37513 16.2857 3.42836V2.57122C16.2857 1.62444 15.5182 0.856934 14.5714 0.856934Z" stroke="white" stroke-width="1.71429" stroke-linecap="round" stroke-linejoin="round"/>
<path d="M16.7143 2.57129H19.2857C19.7403 2.57129 20.1765 2.75191 20.4979 3.07339C20.8193 3.39488 21 3.83091 21 4.28557V21.4284C21 21.8831 20.8193 22.3192 20.4979 22.6406C20.1765 22.962 19.7403 23.1427 19.2857 23.1427H4.71429C4.25962 23.1427 3.82359 22.962 3.5021 22.6406C3.18062 22.3192 3 21.8831 3 21.4284V4.28557C3 3.83091 3.18062 3.39488 3.5021 3.07339C3.82359 2.75191 4.25962 2.57129 4.71429 2.57129H7.28571" stroke="white" stroke-width="1.71429" stroke-linecap="round" stroke-linejoin="round"/>
<path d="M8.57141 15.4285L11.1428 17.1428L16.2857 10.2856" stroke="white" stroke-width="1.71429" stroke-linecap="round" stroke-linejoin="round"/>
</svg>
