<svg width="14" height="14" viewBox="0 0 14 14" fill="none" xmlns="http://www.w3.org/2000/svg">
<g clip-path="url(#clip0_1222_30979)">
<path d="M10 3.5V11.5C10 12.0304 9.78929 12.5391 9.41421 12.9142C9.03914 13.2893 8.53043 13.5 8 13.5H0.5C1.03043 13.5 1.53914 13.2893 1.91421 12.9142C2.28929 12.5391 2.5 12.0304 2.5 11.5V2.5C2.5 1.96957 2.71071 1.46086 3.08579 1.08579C3.46086 0.710714 3.96957 0.5 4.5 0.5H11.75" stroke="black" stroke-linecap="round" stroke-linejoin="round"/>
<path d="M11.75 0.5C12.2141 0.5 12.6592 0.684374 12.9874 1.01256C13.3156 1.34075 13.5 1.78587 13.5 2.25V3C13.5 3.13261 13.4473 3.25979 13.3536 3.35355C13.2598 3.44732 13.1326 3.5 13 3.5H10V2.25C10 1.78587 10.1844 1.34075 10.5126 1.01256C10.8408 0.684374 11.2859 0.5 11.75 0.5Z" stroke="black" stroke-linecap="round" stroke-linejoin="round"/>
<path d="M6 4H7.5" stroke="black" stroke-linecap="round" stroke-linejoin="round"/>
<path d="M5 7H7.5" stroke="black" stroke-linecap="round" stroke-linejoin="round"/>
<path d="M5 10H7.5" stroke="black" stroke-linecap="round" stroke-linejoin="round"/>
</g>
<defs>
<clipPath id="clip0_1222_30979">
<rect width="14" height="14" fill="white"/>
</clipPath>
</defs>
</svg>
