<svg width="14" height="14" viewBox="0 0 14 14" fill="none" xmlns="http://www.w3.org/2000/svg">
<g clip-path="url(#clip0_125_18)">
<path fill-rule="evenodd" clip-rule="evenodd" d="M8 4.50003C8 6.15688 6.65685 7.50003 5 7.50003C3.34315 7.50003 2 6.15688 2 4.50003C2 2.84318 3.34315 1.50003 5 1.50003C6.65685 1.50003 8 2.84318 8 4.50003ZM5 8.5C2.23858 8.5 0 10.7386 0 13.5C0 13.7761 0.223858 14 0.5 14H9.5C9.77614 14 10 13.7761 10 13.5C10 10.7386 7.76142 8.5 5 8.5ZM13.5001 14H11.1776C11.2248 13.8416 11.2501 13.6737 11.2501 13.5C11.2501 11.4589 10.2717 9.64637 8.75832 8.50574C8.83843 8.50193 8.91903 8.5 9.00008 8.5C11.7615 8.5 14.0001 10.7386 14.0001 13.5C14.0001 13.7761 13.7762 14 13.5001 14ZM9.00008 7.50003C8.69835 7.50003 8.40703 7.45548 8.13233 7.37261C8.82642 6.61618 9.25008 5.60758 9.25008 4.50003C9.25008 3.39248 8.82642 2.38388 8.13232 1.62744C8.40703 1.54457 8.69835 1.50003 9.00008 1.50003C10.6569 1.50003 12.0001 2.84318 12.0001 4.50003C12.0001 6.15688 10.6569 7.50003 9.00008 7.50003Z" fill="white"/>
</g>
<defs>
<clipPath id="clip0_125_18">
<rect width="14" height="14" fill="white"/>
</clipPath>
</defs>
</svg>
