<svg width="14" height="14" viewBox="0 0 14 14" fill="none" xmlns="http://www.w3.org/2000/svg">
<path d="M12 10.5V12.5C12 12.7652 11.8946 13.0196 11.7071 13.2071C11.5196 13.3946 11.2652 13.5 11 13.5H1.5C1.23478 13.5 0.98043 13.3946 0.792893 13.2071C0.605357 13.0196 0.5 12.7652 0.5 12.5V5C0.5 3.34315 1.84315 2 3.5 2H10V4.5" stroke="white" stroke-linecap="round" stroke-linejoin="round"/>
<path d="M13 7.5H9.5C9.22386 7.5 9 7.72386 9 8V10C9 10.2761 9.22386 10.5 9.5 10.5H13C13.2761 10.5 13.5 10.2761 13.5 10V8C13.5 7.72386 13.2761 7.5 13 7.5Z" stroke="white" stroke-linecap="round" stroke-linejoin="round"/>
<path d="M12 7.5V5.5C12 5.23478 11.8946 4.98043 11.7071 4.79289C11.5196 4.60536 11.2652 4.5 11 4.5H10H3.5" stroke="white" stroke-linecap="round" stroke-linejoin="round"/>
</svg>
